<svg xmlns="http://www.w3.org/2000/svg" width="32" height="32" viewBox="0 0 32 32"><defs><clipPath id="a"><path d="M5 2h22a3 3 0 0 1 3 3v16a3 3 0 0 1-3 3H11l-6 6v-6a3 3 0 0 1-3-3V5a3 3 0 0 1 3-3"/></clipPath></defs><g clip-path="url(#a)"><path fill="#1a73e8" d="M0 0h16v13H0z"/><path fill="#ea4335" d="M16 0h16v13H16z"/><path fill="#34a853" d="M0 13h16v19H0z"/><path fill="#fbbc05" d="M16 13h16v19H16z"/></g><circle cx="16" cy="13" r="4.5" fill="none" stroke="#fff" stroke-width="2.5"/><path stroke="#fff" stroke-linecap="round" stroke-width="2.5" d="m19.5 16.5 5 5"/></svg>